<svg xmlns="http://www.w3.org/2000/svg" width="100%" viewBox="0 0 1080 580" font-family="PingFang SC, Microsoft YaHei, sans-serif">
  <defs>
    <marker id="f3a" markerWidth="9" markerHeight="7" refX="7" refY="2.5" orient="auto"><path d="M0,0 L7,2.5 L0,5 Z" fill="#94a3b8"/></marker>
    <marker id="f3r" markerWidth="9" markerHeight="7" refX="7" refY="2.5" orient="auto"><path d="M0,0 L7,2.5 L0,5 Z" fill="#ef4444"/></marker>
  </defs>
  <text x="270" y="36" text-anchor="middle" font-size="15" font-weight="bold" fill="#475569">Goal Decomposition · 目标分解图</text>
  <rect x="15" y="52" width="510" height="400" rx="12" fill="#f8fafc" stroke="#cbd5e1" stroke-width="1.5" stroke-dasharray="7 5"/>
  <rect x="170" y="78" width="200" height="46" rx="9" fill="#dbeafe" stroke="#2563eb" stroke-width="2"/>
  <text x="270" y="107" text-anchor="middle" font-size="14" fill="#1e3a8a">🎯 目标：修复上线后崩溃</text>
  <line x1="270" y1="124" x2="103" y2="184" stroke="#94a3b8" stroke-width="1.8" marker-end="url(#f3a)"/>
  <line x1="270" y1="124" x2="270" y2="184" stroke="#94a3b8" stroke-width="1.8" marker-end="url(#f3a)"/>
  <line x1="270" y1="124" x2="437" y2="184" stroke="#94a3b8" stroke-width="1.8" marker-end="url(#f3a)"/>
  <rect x="25" y="188" width="150" height="46" rx="9" fill="#ffffff" stroke="#64748b" stroke-width="1.8"/>
  <text x="100" y="217" text-anchor="middle" font-size="13.5" fill="#334155">解析日志</text>
  <rect x="195" y="188" width="150" height="46" rx="9" fill="#ffffff" stroke="#64748b" stroke-width="1.8"/>
  <text x="270" y="217" text-anchor="middle" font-size="13.5" fill="#334155">复现故障</text>
  <rect x="365" y="188" width="150" height="46" rx="9" fill="#ffffff" stroke="#64748b" stroke-width="1.8"/>
  <text x="440" y="217" text-anchor="middle" font-size="13.5" fill="#334155">检查变更</text>
  <line x1="100" y1="234" x2="237" y2="294" stroke="#94a3b8" stroke-width="1.8" marker-end="url(#f3a)"/>
  <line x1="270" y1="234" x2="270" y2="294" stroke="#94a3b8" stroke-width="1.8" marker-end="url(#f3a)"/>
  <line x1="440" y1="234" x2="303" y2="294" stroke="#94a3b8" stroke-width="1.8" marker-end="url(#f3a)"/>
  <rect x="195" y="298" width="150" height="46" rx="9" fill="#fef9c3" stroke="#ca8a04" stroke-width="2"/>
  <text x="270" y="327" text-anchor="middle" font-size="13.5" fill="#713f12">定位根因</text>
  <text x="270" y="394" text-anchor="middle" font-size="12.5" fill="#64748b">节点＝子任务，边＝依赖；就绪的节点即可并行调度</text>
  <text x="270" y="418" text-anchor="middle" font-size="11.5" fill="#94a3b8">显式化：HuggingGPT / ReWOO · 可调度：LLMCompiler · 动态：TDAG / DynTaskMAS</text>

  <text x="810" y="36" text-anchor="middle" font-size="15" font-weight="bold" fill="#475569">Workflow Optimization · 可执行工作流</text>
  <rect x="555" y="52" width="510" height="400" rx="12" fill="#faf5ff" stroke="#cbd5e1" stroke-width="1.5" stroke-dasharray="7 5"/>
  <rect x="575" y="80" width="150" height="44" rx="9" fill="#ede9fe" stroke="#7c3aed" stroke-width="2"/>
  <text x="650" y="107" text-anchor="middle" font-size="13.5" fill="#4c1d95">Log Parser</text>
  <rect x="745" y="80" width="170" height="44" rx="9" fill="#ede9fe" stroke="#7c3aed" stroke-width="2"/>
  <text x="830" y="107" text-anchor="middle" font-size="13.5" fill="#4c1d95">Git Diff Analyzer</text>
  <rect x="575" y="185" width="150" height="44" rx="9" fill="#ede9fe" stroke="#7c3aed" stroke-width="2"/>
  <text x="650" y="212" text-anchor="middle" font-size="13.5" fill="#4c1d95">Sandbox Runner</text>
  <rect x="760" y="185" width="150" height="44" rx="9" fill="#ede9fe" stroke="#7c3aed" stroke-width="2"/>
  <text x="835" y="212" text-anchor="middle" font-size="13.5" fill="#4c1d95">Patch Generator</text>
  <rect x="665" y="295" width="150" height="44" rx="9" fill="#ede9fe" stroke="#7c3aed" stroke-width="2"/>
  <text x="740" y="322" text-anchor="middle" font-size="13.5" fill="#4c1d95">Test Runner</text>
  <line x1="650" y1="124" x2="650" y2="183" stroke="#94a3b8" stroke-width="1.8" marker-end="url(#f3a)"/>
  <line x1="830" y1="124" x2="834" y2="183" stroke="#94a3b8" stroke-width="1.8" marker-end="url(#f3a)"/>
  <line x1="650" y1="229" x2="732" y2="293" stroke="#94a3b8" stroke-width="1.8" marker-end="url(#f3a)"/>
  <line x1="835" y1="229" x2="750" y2="293" stroke="#94a3b8" stroke-width="1.8" marker-end="url(#f3a)"/>
  <path d="M 818 317 Q 962 282 905 231" fill="none" stroke="#ef4444" stroke-width="1.8" stroke-dasharray="6 4" marker-end="url(#f3r)"/>
  <text x="810" y="376" text-anchor="middle" font-size="12.5" fill="#b91c1c">↺ 运行时反馈：接受 / 调试 / 回滚 / 继续（DyFlow / QualityFlow）</text>
  <text x="810" y="400" text-anchor="middle" font-size="12" fill="#64748b">静态：结构本身可搜索优化（GPTSwarm / ADAS / AFlow）</text>
  <text x="810" y="422" text-anchor="middle" font-size="11.5" fill="#94a3b8">⚠ FlowSteer：规划信号可被操纵 → 重规划安全</text>

  <text x="540" y="500" text-anchor="middle" font-size="14" fill="#334155">把「隐式在上下文中推理」变成「显式、可调度、可优化、可修订的系统结构」</text>
  <text x="540" y="528" text-anchor="middle" font-size="12" fill="#94a3b8">左图回答「任务长什么样」，右图回答「具体怎么执行」；两图都要接受运行时证据的修订</text>
</svg>